<svg xmlns="http://www.w3.org/2000/svg" viewBox="0 0 800 340" font-family="Arial,'Helvetica Neue',sans-serif">
  <defs>
    <linearGradient id="bg" x1="0%" y1="0%" x2="100%" y2="100%">
      <stop offset="0%" style="stop-color:#0f1a2e"/><stop offset="100%" style="stop-color:#0a1f14"/>
    </linearGradient>
    <linearGradient id="gn" x1="0%" y1="0%" x2="100%" y2="100%">
      <stop offset="0%" style="stop-color:#166534"/><stop offset="100%" style="stop-color:#16a34a"/>
    </linearGradient>
    <linearGradient id="bl" x1="0%" y1="0%" x2="100%" y2="100%">
      <stop offset="0%" style="stop-color:#1e3a5f"/><stop offset="100%" style="stop-color:#1d4ed8"/>
    </linearGradient>
  </defs>
  <rect width="800" height="340" fill="url(#bg)" rx="12"/>
  <text x="400" y="36" text-anchor="middle" fill="#4ade80" font-size="16" font-weight="700">🔌 StarKernal EVDC DC EV Charger  ·  V2G Vehicle-to-Grid</text>
  <circle cx="400" cy="155" r="65" fill="url(#gn)" opacity="0.9"/>
  <text x="400" y="140" text-anchor="middle" fill="white" font-size="28">🔌</text>
  <text x="400" y="163" text-anchor="middle" fill="white" font-size="14" font-weight="700">EVDC</text>
  <text x="400" y="181" text-anchor="middle" fill="#4ade80" font-size="11">12 / 25 kW</text>
  <rect x="40" y="110" width="230" height="90" rx="12" fill="url(#bl)" opacity="0.9"/>
  <text x="155" y="144" text-anchor="middle" fill="white" font-size="28">🚗</text>
  <text x="155" y="167" text-anchor="middle" fill="white" font-size="13" font-weight="600">Electric Vehicle</text>
  <text x="155" y="185" text-anchor="middle" fill="#60a5fa" font-size="11">Mobile Energy Storage</text>
  <line x1="272" y1="155" x2="334" y2="155" stroke="#4ade80" stroke-width="3"/>
  <polygon points="270,150 280,155 270,160" fill="#4ade80"/>
  <polygon points="336,150 326,155 336,160" fill="#4ade80"/>
  <text x="303" y="148" text-anchor="middle" fill="#4ade80" font-size="10">V2G</text>
  <rect x="530" y="110" width="230" height="90" rx="12" fill="#78350f" stroke="#f59e0b" stroke-width="1.5"/>
  <text x="645" y="144" text-anchor="middle" fill="white" font-size="28">⚡</text>
  <text x="645" y="167" text-anchor="middle" fill="white" font-size="13" font-weight="600">Grid / VPP</text>
  <text x="645" y="185" text-anchor="middle" fill="#fbbf24" font-size="11">Frequency Regulation Revenue</text>
  <line x1="466" y1="155" x2="528" y2="155" stroke="#f59e0b" stroke-width="3"/>
  <polygon points="464,150 474,155 464,160" fill="#f59e0b"/>
  <polygon points="530,150 520,155 530,160" fill="#f59e0b"/>
  <rect x="60" y="225" width="160" height="38" rx="19" fill="rgba(22,163,74,0.2)" stroke="#22c55e" stroke-width="1"/>
  <text x="140" y="241" text-anchor="middle" fill="#4ade80" font-size="11" font-weight="600">🔄 V2X Bidirectional</text>
  <text x="140" y="256" text-anchor="middle" fill="rgba(255,255,255,0.6)" font-size="10">Vehicle to Grid</text>
  <rect x="235" y="225" width="160" height="38" rx="19" fill="rgba(22,163,74,0.2)" stroke="#22c55e" stroke-width="1"/>
  <text x="315" y="241" text-anchor="middle" fill="#4ade80" font-size="11" font-weight="600">⚡ Plug &amp; Charge</text>
  <text x="315" y="256" text-anchor="middle" fill="rgba(255,255,255,0.6)" font-size="10">RFID / App / LED</text>
  <rect x="410" y="225" width="160" height="38" rx="19" fill="rgba(22,163,74,0.2)" stroke="#22c55e" stroke-width="1"/>
  <text x="490" y="241" text-anchor="middle" fill="#4ade80" font-size="11" font-weight="600">🧠 AI Scheduling</text>
  <text x="490" y="256" text-anchor="middle" fill="rgba(255,255,255,0.6)" font-size="10">Off-peak Optimization</text>
  <rect x="585" y="225" width="155" height="38" rx="19" fill="rgba(22,163,74,0.2)" stroke="#22c55e" stroke-width="1"/>
  <text x="662" y="241" text-anchor="middle" fill="#4ade80" font-size="11" font-weight="600">🛡️ IP66 Protection</text>
  <text x="662" y="256" text-anchor="middle" fill="rgba(255,255,255,0.6)" font-size="10">-40°C ~ 70°C</text>
  <rect x="30" y="278" width="740" height="40" rx="8" fill="rgba(0,0,0,0.3)"/>
  <text x="400" y="295" text-anchor="middle" fill="rgba(255,255,255,0.5)" font-size="11">Off-peak charging · Peak discharging · VPP participation · Save thousands per year</text>
  <text x="400" y="311" text-anchor="middle" fill="#4ade80" font-size="11" font-weight="600">12 kW Version  |  25 kW Version  —  Two power options, flexible selection</text>
</svg>
